# xmcd CD database file
#
# Track frame offsets:
#	150
#	44712
#	93812
#	111802
#	121637
#
# Disc length: 2041 seconds
#
# Revision: 0
# Processed by: cddbd v1.5.1PL0 Copyright (c) Steve Scherf et al.
# Submitted via: CDex 1.51
#
DISCID=3607f705
DTITLE=Weather Report - Live Passage Disc2
DYEAR=1980
DGENRE=Jazz
TTITLE0=Bass Solo
TTITLE1=The Pursuit Of The Woman With The Feathered Hat
TTITLE2=Forlorn
TTITLE3=Rockin' In Rhythm
TTITLE4=Birdland
EXTD=YEAR: 1980
EXTT0=
EXTT1=
EXTT2=
EXTT3=
EXTT4=
PLAYORDER=
